<?xml version="1.0" encoding="UTF-8"?>
<svg width="375" height="812" viewBox="0 0 375 812" xmlns="http://www.w3.org/2000/svg">
  <defs>
    <linearGradient id="headerGradient" x1="0%" y1="0%" x2="100%" y2="100%">
      <stop offset="0%" style="stop-color:#667eea;stop-opacity:1" />
      <stop offset="100%" style="stop-color:#764ba2;stop-opacity:1" />
    </linearGradient>
  </defs>

  <!-- Camera View Background -->
  <rect x="0" y="0" width="375" height="812" rx="40" fill="#1a1a1a"/>

  <!-- Status Bar -->
  <text x="30" y="50" fill="white" font-family="Arial" font-size="14">9:41</text>
  <text x="320" y="50" fill="white" font-family="Arial" font-size="14">100%</text>

  <!-- Top Bar -->
  <text x="20" y="85" fill="white" font-family="Arial" font-size="24">✕</text>
  <text x="187.5" y="85" fill="white" font-family="Arial" font-size="18" font-weight="bold" text-anchor="middle">拍照记账</text>
  <text x="340" y="85" fill="white" font-family="Arial" font-size="24">⚡</text>

  <!-- Camera Preview Area -->
  <rect x="20" y="110" width="335" height="450" rx="12" fill="#2d2d2d"/>

  <!-- Receipt Preview -->
  <rect x="60" y="150" width="255" height="370" rx="4" fill="#fff"/>
  <text x="187.5" y="190" fill="#333" font-family="Arial" font-size="16" font-weight="bold" text-anchor="middle">超市购物小票</text>
  <line x1="80" y1="210" x2="295" y2="210" stroke="#E0E0E0"/>

  <text x="90" y="240" fill="#666" font-family="Arial" font-size="12">商品名称</text>
  <text x="260" y="240" fill="#666" font-family="Arial" font-size="12" text-anchor="end">金额</text>

  <text x="90" y="270" fill="#333" font-family="Arial" font-size="13">矿泉水 x2</text>
  <text x="260" y="270" fill="#333" font-family="Arial" font-size="13" text-anchor="end">¥4.00</text>

  <text x="90" y="295" fill="#333" font-family="Arial" font-size="13">牛奶 1L</text>
  <text x="260" y="295" fill="#333" font-family="Arial" font-size="13" text-anchor="end">¥12.80</text>

  <text x="90" y="320" fill="#333" font-family="Arial" font-size="13">面包</text>
  <text x="260" y="320" fill="#333" font-family="Arial" font-size="13" text-anchor="end">¥8.50</text>

  <text x="90" y="345" fill="#333" font-family="Arial" font-size="13">鸡蛋 10枚</text>
  <text x="260" y="345" fill="#333" font-family="Arial" font-size="13" text-anchor="end">¥15.00</text>

  <text x="90" y="370" fill="#333" font-family="Arial" font-size="13">酸奶 x3</text>
  <text x="260" y="370" fill="#333" font-family="Arial" font-size="13" text-anchor="end">¥18.00</text>

  <line x1="80" y1="395" x2="295" y2="395" stroke="#E0E0E0"/>

  <text x="90" y="425" fill="#333" font-family="Arial" font-size="14" font-weight="bold">合计</text>
  <text x="260" y="425" fill="#F44336" font-family="Arial" font-size="16" font-weight="bold" text-anchor="end">¥58.30</text>

  <text x="187.5" y="465" fill="#999" font-family="Arial" font-size="11" text-anchor="middle">2024-12-27 14:35:28</text>
  <text x="187.5" y="485" fill="#999" font-family="Arial" font-size="11" text-anchor="middle">沃尔玛超市(朝阳店)</text>

  <!-- Scan Frame Corners -->
  <path d="M30,120 L30,150 M30,120 L60,120" stroke="#667eea" stroke-width="3" fill="none"/>
  <path d="M345,120 L345,150 M345,120 L315,120" stroke="#667eea" stroke-width="3" fill="none"/>
  <path d="M30,550 L30,520 M30,550 L60,550" stroke="#667eea" stroke-width="3" fill="none"/>
  <path d="M345,550 L345,520 M345,550 L315,550" stroke="#667eea" stroke-width="3" fill="none"/>

  <!-- AI Processing Indicator -->
  <rect x="120" y="570" width="135" height="30" rx="15" fill="url(#headerGradient)"/>
  <text x="187.5" y="590" fill="white" font-family="Arial" font-size="12" text-anchor="middle">🤖 AI 识别中...</text>

  <!-- Gallery Button -->
  <rect x="30" y="620" width="80" height="80" rx="12" fill="#333"/>
  <text x="70" y="668" fill="white" font-family="Arial" font-size="28" text-anchor="middle">🖼</text>

  <!-- Capture Button -->
  <circle cx="187.5" cy="660" r="40" fill="none" stroke="white" stroke-width="4"/>
  <circle cx="187.5" cy="660" r="32" fill="white"/>

  <!-- Switch Camera -->
  <rect x="265" y="620" width="80" height="80" rx="12" fill="#333"/>
  <text x="305" y="668" fill="white" font-family="Arial" font-size="28" text-anchor="middle">🔄</text>

  <!-- Tips -->
  <text x="187.5" y="750" fill="rgba(255,255,255,0.6)" font-family="Arial" font-size="12" text-anchor="middle">将小票/发票放入框内，自动识别金额和分类</text>

  <!-- Home Indicator -->
  <rect x="140" y="795" width="95" height="5" rx="2.5" fill="rgba(255,255,255,0.5)"/>
</svg>
