<?xml version="1.0" encoding="UTF-8"?>
<svg width="375" height="812" viewBox="0 0 375 812" xmlns="http://www.w3.org/2000/svg">
  <defs>
    <linearGradient id="headerGradient" x1="0%" y1="0%" x2="100%" y2="100%">
      <stop offset="0%" style="stop-color:#667eea;stop-opacity:1" />
      <stop offset="100%" style="stop-color:#764ba2;stop-opacity:1" />
    </linearGradient>
    <linearGradient id="chartGradient" x1="0%" y1="0%" x2="0%" y2="100%">
      <stop offset="0%" style="stop-color:#667eea;stop-opacity:0.8" />
      <stop offset="100%" style="stop-color:#667eea;stop-opacity:0.1" />
    </linearGradient>
  </defs>

  <!-- Background -->
  <rect x="0" y="0" width="375" height="812" rx="40" fill="#F5F7FA"/>

  <!-- Header -->
  <rect x="0" y="0" width="375" height="100" fill="url(#headerGradient)"/>
  <text x="30" y="50" fill="white" font-family="Arial" font-size="14">9:41</text>
  <text x="187.5" y="80" fill="white" font-family="Arial" font-size="18" font-weight="bold" text-anchor="middle">统计报表</text>

  <!-- Period Selector -->
  <rect x="20" y="115" width="335" height="40" rx="20" fill="white"/>
  <rect x="25" y="120" width="76" height="30" rx="15" fill="url(#headerGradient)"/>
  <text x="63" y="140" fill="white" font-family="Arial" font-size="12" font-weight="500" text-anchor="middle">周</text>
  <text x="132" y="140" fill="#666" font-family="Arial" font-size="12" text-anchor="middle">月</text>
  <text x="194" y="140" fill="#666" font-family="Arial" font-size="12" text-anchor="middle">年</text>
  <text x="260" y="140" fill="#666" font-family="Arial" font-size="12" text-anchor="middle">自定义</text>

  <!-- Summary Cards -->
  <rect x="20" y="170" width="160" height="80" rx="12" fill="white"/>
  <text x="35" y="200" fill="#999" font-family="Arial" font-size="12">本周支出</text>
  <text x="35" y="230" fill="#F44336" font-family="Arial" font-size="22" font-weight="bold">¥1,256</text>

  <rect x="195" y="170" width="160" height="80" rx="12" fill="white"/>
  <text x="210" y="200" fill="#999" font-family="Arial" font-size="12">本周收入</text>
  <text x="210" y="230" fill="#4CAF50" font-family="Arial" font-size="22" font-weight="bold">¥5,000</text>

  <!-- Trend Chart -->
  <rect x="20" y="265" width="335" height="180" rx="12" fill="white"/>
  <text x="35" y="295" fill="#333" font-family="Arial" font-size="14" font-weight="500">收支趋势</text>

  <!-- Chart Area -->
  <g transform="translate(35, 310)">
    <!-- Grid Lines -->
    <line x1="0" y1="0" x2="305" y2="0" stroke="#F0F0F0"/>
    <line x1="0" y1="35" x2="305" y2="35" stroke="#F0F0F0"/>
    <line x1="0" y1="70" x2="305" y2="70" stroke="#F0F0F0"/>
    <line x1="0" y1="105" x2="305" y2="105" stroke="#F0F0F0"/>

    <!-- Y-axis labels -->
    <text x="-5" y="5" fill="#999" font-family="Arial" font-size="10" text-anchor="end">1500</text>
    <text x="-5" y="40" fill="#999" font-family="Arial" font-size="10" text-anchor="end">1000</text>
    <text x="-5" y="75" fill="#999" font-family="Arial" font-size="10" text-anchor="end">500</text>
    <text x="-5" y="110" fill="#999" font-family="Arial" font-size="10" text-anchor="end">0</text>

    <!-- Area Chart -->
    <path d="M20,85 L60,60 L100,70 L140,40 L180,55 L220,30 L260,45 L260,105 L20,105 Z" fill="url(#chartGradient)"/>
    <path d="M20,85 L60,60 L100,70 L140,40 L180,55 L220,30 L260,45" fill="none" stroke="#667eea" stroke-width="2"/>

    <!-- Data Points -->
    <circle cx="20" cy="85" r="4" fill="#667eea"/>
    <circle cx="60" cy="60" r="4" fill="#667eea"/>
    <circle cx="100" cy="70" r="4" fill="#667eea"/>
    <circle cx="140" cy="40" r="4" fill="#667eea"/>
    <circle cx="180" cy="55" r="4" fill="#667eea"/>
    <circle cx="220" cy="30" r="4" fill="#667eea"/>
    <circle cx="260" cy="45" r="4" fill="#667eea"/>

    <!-- X-axis labels -->
    <text x="20" y="125" fill="#999" font-family="Arial" font-size="10" text-anchor="middle">周一</text>
    <text x="60" y="125" fill="#999" font-family="Arial" font-size="10" text-anchor="middle">周二</text>
    <text x="100" y="125" fill="#999" font-family="Arial" font-size="10" text-anchor="middle">周三</text>
    <text x="140" y="125" fill="#999" font-family="Arial" font-size="10" text-anchor="middle">周四</text>
    <text x="180" y="125" fill="#999" font-family="Arial" font-size="10" text-anchor="middle">周五</text>
    <text x="220" y="125" fill="#999" font-family="Arial" font-size="10" text-anchor="middle">周六</text>
    <text x="260" y="125" fill="#999" font-family="Arial" font-size="10" text-anchor="middle">周日</text>
  </g>

  <!-- Category Pie Chart -->
  <rect x="20" y="460" width="335" height="200" rx="12" fill="white"/>
  <text x="35" y="490" fill="#333" font-family="Arial" font-size="14" font-weight="500">支出分类</text>

  <!-- Pie Chart -->
  <g transform="translate(100, 570)">
    <circle cx="0" cy="0" r="55" fill="none" stroke="#667eea" stroke-width="25" stroke-dasharray="86.4 259.2" stroke-dashoffset="0"/>
    <circle cx="0" cy="0" r="55" fill="none" stroke="#4CAF50" stroke-width="25" stroke-dasharray="51.8 293.6" stroke-dashoffset="-86.4"/>
    <circle cx="0" cy="0" r="55" fill="none" stroke="#FF9800" stroke-width="25" stroke-dasharray="43.2 302.2" stroke-dashoffset="-138.2"/>
    <circle cx="0" cy="0" r="55" fill="none" stroke="#E91E63" stroke-width="25" stroke-dasharray="34.6 310.8" stroke-dashoffset="-181.4"/>
    <circle cx="0" cy="0" r="55" fill="none" stroke="#9E9E9E" stroke-width="25" stroke-dasharray="130 215.4" stroke-dashoffset="-216"/>
  </g>

  <!-- Legend -->
  <g transform="translate(200, 520)" font-family="Arial" font-size="12">
    <rect x="0" y="0" width="12" height="12" rx="2" fill="#667eea"/>
    <text x="20" y="10" fill="#333">餐饮 25%</text>

    <rect x="0" y="25" width="12" height="12" rx="2" fill="#4CAF50"/>
    <text x="20" y="35" fill="#333">购物 15%</text>

    <rect x="0" y="50" width="12" height="12" rx="2" fill="#FF9800"/>
    <text x="20" y="60" fill="#333">交通 12.5%</text>

    <rect x="0" y="75" width="12" height="12" rx="2" fill="#E91E63"/>
    <text x="20" y="85" fill="#333">娱乐 10%</text>

    <rect x="0" y="100" width="12" height="12" rx="2" fill="#9E9E9E"/>
    <text x="20" y="110" fill="#333">其他 37.5%</text>
  </g>

  <!-- AI Insights Button -->
  <rect x="20" y="675" width="335" height="50" rx="12" fill="white"/>
  <text x="60" y="705" fill="#667eea" font-family="Arial" font-size="24">🤖</text>
  <text x="100" y="705" fill="#333" font-family="Arial" font-size="14" font-weight="500">AI 智能分析</text>
  <text x="330" y="705" fill="#667eea" font-family="Arial" font-size="16">→</text>

  <!-- Bottom Navigation -->
  <rect x="0" y="740" width="375" height="72" fill="white"/>
  <line x1="0" y1="740" x2="375" y2="740" stroke="#E0E0E0"/>
  <g font-family="Arial" font-size="10" text-anchor="middle">
    <g transform="translate(47, 765)">
      <text x="0" y="0" fill="#999" font-size="24">🏠</text>
      <text x="0" y="22" fill="#999">首页</text>
    </g>
    <g transform="translate(122, 765)">
      <text x="0" y="0" fill="#667eea" font-size="24">📊</text>
      <text x="0" y="22" fill="#667eea" font-weight="500">统计</text>
    </g>
    <g transform="translate(187.5, 765)">
      <text x="0" y="0" fill="#999" font-size="24">💳</text>
      <text x="0" y="22" fill="#999">账户</text>
    </g>
    <g transform="translate(253, 765)">
      <text x="0" y="0" fill="#999" font-size="24">🎯</text>
      <text x="0" y="22" fill="#999">预算</text>
    </g>
    <g transform="translate(328, 765)">
      <text x="0" y="0" fill="#999" font-size="24">👤</text>
      <text x="0" y="22" fill="#999">我的</text>
    </g>
  </g>
</svg>
