<?xml version="1.0" encoding="UTF-8"?>
<svg width="375" height="812" viewBox="0 0 375 812" xmlns="http://www.w3.org/2000/svg">
  <defs>
    <linearGradient id="headerGradient" x1="0%" y1="0%" x2="100%" y2="100%">
      <stop offset="0%" style="stop-color:#667eea;stop-opacity:1" />
      <stop offset="100%" style="stop-color:#764ba2;stop-opacity:1" />
    </linearGradient>
    <linearGradient id="vipGradient" x1="0%" y1="0%" x2="100%" y2="0%">
      <stop offset="0%" style="stop-color:#FFD700" />
      <stop offset="100%" style="stop-color:#FFA500" />
    </linearGradient>
  </defs>

  <!-- Background -->
  <rect x="0" y="0" width="375" height="812" rx="40" fill="#F5F7FA"/>

  <!-- Header -->
  <rect x="0" y="0" width="375" height="200" fill="url(#headerGradient)"/>
  <text x="30" y="50" fill="white" font-family="Arial" font-size="14">9:41</text>
  <text x="340" y="50" fill="white" font-family="Arial" font-size="20">⚙️</text>

  <!-- User Info -->
  <circle cx="187.5" cy="130" r="45" fill="white"/>
  <text x="187.5" y="145" fill="#667eea" font-family="Arial" font-size="40" text-anchor="middle">👤</text>
  <text x="187.5" y="200" fill="white" font-family="Arial" font-size="18" font-weight="bold" text-anchor="middle">小明同学</text>

  <!-- VIP Card -->
  <rect x="20" y="220" width="335" height="80" rx="12" fill="url(#vipGradient)"/>
  <text x="50" y="255" fill="#333" font-family="Arial" font-size="20">👑</text>
  <text x="80" y="250" fill="#333" font-family="Arial" font-size="14" font-weight="bold">普通用户</text>
  <text x="80" y="275" fill="rgba(0,0,0,0.6)" font-family="Arial" font-size="12">升级会员享受更多功能</text>
  <rect x="260" y="240" width="80" height="32" rx="16" fill="#333"/>
  <text x="300" y="261" fill="white" font-family="Arial" font-size="12" text-anchor="middle">立即升级</text>

  <!-- Menu Section 1 -->
  <rect x="20" y="315" width="335" height="180" rx="12" fill="white"/>

  <!-- Menu Item: Ledger -->
  <g transform="translate(40, 350)">
    <circle cx="0" cy="0" r="18" fill="#E3F2FD"/>
    <text x="0" y="6" fill="#2196F3" font-family="Arial" font-size="16" text-anchor="middle">📚</text>
    <text x="35" y="5" fill="#333" font-family="Arial" font-size="14">我的账本</text>
    <text x="280" y="5" fill="#999" font-family="Arial" font-size="14" text-anchor="end">3个 ></text>
  </g>
  <line x1="75" y1="375" x2="315" y2="375" stroke="#F0F0F0"/>

  <!-- Menu Item: Categories -->
  <g transform="translate(40, 410)">
    <circle cx="0" cy="0" r="18" fill="#FFF3E0"/>
    <text x="0" y="6" fill="#FF9800" font-family="Arial" font-size="16" text-anchor="middle">🏷</text>
    <text x="35" y="5" fill="#333" font-family="Arial" font-size="14">分类管理</text>
    <text x="280" y="5" fill="#999" font-family="Arial" font-size="14" text-anchor="end">></text>
  </g>
  <line x1="75" y1="435" x2="315" y2="435" stroke="#F0F0F0"/>

  <!-- Menu Item: Family -->
  <g transform="translate(40, 470)">
    <circle cx="0" cy="0" r="18" fill="#E8F5E9"/>
    <text x="0" y="6" fill="#4CAF50" font-family="Arial" font-size="16" text-anchor="middle">👨‍👩‍👧</text>
    <text x="35" y="5" fill="#333" font-family="Arial" font-size="14">家庭成员</text>
    <text x="280" y="5" fill="#999" font-family="Arial" font-size="14" text-anchor="end">2人 ></text>
  </g>

  <!-- Menu Section 2 -->
  <rect x="20" y="510" width="335" height="120" rx="12" fill="white"/>

  <!-- Menu Item: Export -->
  <g transform="translate(40, 545)">
    <circle cx="0" cy="0" r="18" fill="#FCE4EC"/>
    <text x="0" y="6" fill="#E91E63" font-family="Arial" font-size="16" text-anchor="middle">📤</text>
    <text x="35" y="5" fill="#333" font-family="Arial" font-size="14">数据导出</text>
    <text x="280" y="5" fill="#999" font-family="Arial" font-size="14" text-anchor="end">></text>
  </g>
  <line x1="75" y1="570" x2="315" y2="570" stroke="#F0F0F0"/>

  <!-- Menu Item: Backup -->
  <g transform="translate(40, 605)">
    <circle cx="0" cy="0" r="18" fill="#E8EAF6"/>
    <text x="0" y="6" fill="#3F51B5" font-family="Arial" font-size="16" text-anchor="middle">☁️</text>
    <text x="35" y="5" fill="#333" font-family="Arial" font-size="14">云端备份</text>
    <text x="280" y="5" fill="#4CAF50" font-family="Arial" font-size="14" text-anchor="end">已开启 ></text>
  </g>

  <!-- Menu Section 3 -->
  <rect x="20" y="645" width="335" height="60" rx="12" fill="white"/>

  <!-- Menu Item: Help -->
  <g transform="translate(40, 680)">
    <circle cx="0" cy="0" r="18" fill="#F5F5F5"/>
    <text x="0" y="6" fill="#666" font-family="Arial" font-size="16" text-anchor="middle">❓</text>
    <text x="35" y="5" fill="#333" font-family="Arial" font-size="14">帮助与反馈</text>
    <text x="280" y="5" fill="#999" font-family="Arial" font-size="14" text-anchor="end">></text>
  </g>

  <!-- Bottom Navigation -->
  <rect x="0" y="740" width="375" height="72" fill="white"/>
  <line x1="0" y1="740" x2="375" y2="740" stroke="#E0E0E0"/>
  <g font-family="Arial" font-size="10" text-anchor="middle">
    <g transform="translate(47, 765)">
      <text x="0" y="0" fill="#999" font-size="24">🏠</text>
      <text x="0" y="22" fill="#999">首页</text>
    </g>
    <g transform="translate(122, 765)">
      <text x="0" y="0" fill="#999" font-size="24">📊</text>
      <text x="0" y="22" fill="#999">统计</text>
    </g>
    <g transform="translate(187.5, 765)">
      <text x="0" y="0" fill="#999" font-size="24">💳</text>
      <text x="0" y="22" fill="#999">账户</text>
    </g>
    <g transform="translate(253, 765)">
      <text x="0" y="0" fill="#999" font-size="24">🎯</text>
      <text x="0" y="22" fill="#999">预算</text>
    </g>
    <g transform="translate(328, 765)">
      <text x="0" y="0" fill="#667eea" font-size="24">👤</text>
      <text x="0" y="22" fill="#667eea" font-weight="500">我的</text>
    </g>
  </g>
</svg>
