<?xml version="1.0" encoding="UTF-8"?>
<svg width="375" height="812" viewBox="0 0 375 812" xmlns="http://www.w3.org/2000/svg">
  <defs>
    <linearGradient id="headerGradient" x1="0%" y1="0%" x2="100%" y2="100%">
      <stop offset="0%" style="stop-color:#667eea;stop-opacity:1" />
      <stop offset="100%" style="stop-color:#764ba2;stop-opacity:1" />
    </linearGradient>
    <linearGradient id="goldGradient" x1="0%" y1="0%" x2="100%" y2="100%">
      <stop offset="0%" style="stop-color:#FFD700" />
      <stop offset="100%" style="stop-color:#FFA500" />
    </linearGradient>
    <linearGradient id="premiumGradient" x1="0%" y1="0%" x2="100%" y2="100%">
      <stop offset="0%" style="stop-color:#1a1a2e" />
      <stop offset="100%" style="stop-color:#16213e" />
    </linearGradient>
  </defs>

  <!-- Background -->
  <rect x="0" y="0" width="375" height="812" rx="40" fill="#F5F7FA"/>

  <!-- Header -->
  <rect x="0" y="0" width="375" height="180" fill="url(#premiumGradient)"/>
  <text x="30" y="50" fill="white" font-family="Arial" font-size="14">9:41</text>
  <text x="20" y="80" fill="white" font-family="Arial" font-size="24">←</text>
  <text x="187.5" y="80" fill="white" font-family="Arial" font-size="18" font-weight="bold" text-anchor="middle">会员中心</text>

  <!-- Crown Icon -->
  <text x="187.5" y="140" fill="#FFD700" font-family="Arial" font-size="48" text-anchor="middle">👑</text>
  <text x="187.5" y="170" fill="white" font-family="Arial" font-size="14" text-anchor="middle">解锁全部高级功能</text>

  <!-- Pricing Cards -->
  <!-- Monthly -->
  <rect x="20" y="200" width="105" height="130" rx="12" fill="white" stroke="#E0E0E0"/>
  <text x="72.5" y="235" fill="#333" font-family="Arial" font-size="13" font-weight="500" text-anchor="middle">月度会员</text>
  <text x="72.5" y="275" fill="#667eea" font-family="Arial" font-size="24" font-weight="bold" text-anchor="middle">¥18</text>
  <text x="72.5" y="295" fill="#999" font-family="Arial" font-size="11" text-anchor="middle">/月</text>

  <!-- Yearly - Recommended -->
  <rect x="135" y="190" width="105" height="150" rx="12" fill="white" stroke="#FFD700" stroke-width="2"/>
  <rect x="150" y="195" width="75" height="20" rx="10" fill="url(#goldGradient)"/>
  <text x="187.5" y="209" fill="#333" font-family="Arial" font-size="10" font-weight="bold" text-anchor="middle">推荐</text>
  <text x="187.5" y="250" fill="#333" font-family="Arial" font-size="13" font-weight="500" text-anchor="middle">年度会员</text>
  <text x="187.5" y="290" fill="#667eea" font-family="Arial" font-size="24" font-weight="bold" text-anchor="middle">¥128</text>
  <text x="187.5" y="310" fill="#999" font-family="Arial" font-size="11" text-anchor="middle">/年 省¥88</text>

  <!-- Lifetime -->
  <rect x="250" y="200" width="105" height="130" rx="12" fill="white" stroke="#E0E0E0"/>
  <text x="302.5" y="235" fill="#333" font-family="Arial" font-size="13" font-weight="500" text-anchor="middle">终身会员</text>
  <text x="302.5" y="275" fill="#667eea" font-family="Arial" font-size="24" font-weight="bold" text-anchor="middle">¥298</text>
  <text x="302.5" y="295" fill="#999" font-family="Arial" font-size="11" text-anchor="middle">一次性</text>

  <!-- Features Section -->
  <text x="30" y="375" fill="#333" font-family="Arial" font-size="14" font-weight="500">会员专属权益</text>

  <rect x="20" y="390" width="335" height="280" rx="12" fill="white"/>

  <!-- Feature List -->
  <g font-family="Arial" font-size="13">
    <g transform="translate(40, 425)">
      <text x="0" y="0" fill="#FFD700" font-size="18">✨</text>
      <text x="30" y="0" fill="#333">专属主题皮肤 (6款)</text>
      <text x="295" y="0" fill="#4CAF50" font-size="16" text-anchor="end">✓</text>
    </g>
    <line x1="40" y1="445" x2="315" y2="445" stroke="#F0F0F0"/>

    <g transform="translate(40, 470)">
      <text x="0" y="0" fill="#FFD700" font-size="18">📊</text>
      <text x="30" y="0" fill="#333">高级数据报表</text>
      <text x="295" y="0" fill="#4CAF50" font-size="16" text-anchor="end">✓</text>
    </g>
    <line x1="40" y1="490" x2="315" y2="490" stroke="#F0F0F0"/>

    <g transform="translate(40, 515)">
      <text x="0" y="0" fill="#FFD700" font-size="18">📚</text>
      <text x="30" y="0" fill="#333">无限账本数量</text>
      <text x="295" y="0" fill="#4CAF50" font-size="16" text-anchor="end">✓</text>
    </g>
    <line x1="40" y1="535" x2="315" y2="535" stroke="#F0F0F0"/>

    <g transform="translate(40, 560)">
      <text x="0" y="0" fill="#FFD700" font-size="18">☁️</text>
      <text x="30" y="0" fill="#333">云端同步 &amp; 备份</text>
      <text x="295" y="0" fill="#4CAF50" font-size="16" text-anchor="end">✓</text>
    </g>
    <line x1="40" y1="580" x2="315" y2="580" stroke="#F0F0F0"/>

    <g transform="translate(40, 605)">
      <text x="0" y="0" fill="#FFD700" font-size="18">🤖</text>
      <text x="30" y="0" fill="#333">AI智能分析 (无限次)</text>
      <text x="295" y="0" fill="#4CAF50" font-size="16" text-anchor="end">✓</text>
    </g>
    <line x1="40" y1="625" x2="315" y2="625" stroke="#F0F0F0"/>

    <g transform="translate(40, 650)">
      <text x="0" y="0" fill="#FFD700" font-size="18">🚫</text>
      <text x="30" y="0" fill="#333">去除所有广告</text>
      <text x="295" y="0" fill="#4CAF50" font-size="16" text-anchor="end">✓</text>
    </g>
  </g>

  <!-- Subscribe Button -->
  <rect x="20" y="690" width="335" height="50" rx="25" fill="url(#goldGradient)"/>
  <text x="187.5" y="722" fill="#333" font-family="Arial" font-size="16" font-weight="bold" text-anchor="middle">立即订阅年度会员</text>

  <!-- Terms -->
  <text x="187.5" y="770" fill="#999" font-family="Arial" font-size="11" text-anchor="middle">订阅即表示同意《会员服务协议》</text>
  <text x="187.5" y="790" fill="#999" font-family="Arial" font-size="10" text-anchor="middle">自动续费可随时取消 · 7天无理由退款</text>
</svg>
